<?xml version="1.0"?>
<svg xmlns="http://www.w3.org/2000/svg" width="118.965" height="16.084" viewBox="0 0 118.965 16.084">
  <path id="Path_1398" d="M7.578.225,1-5.322l6.582-5.537L9.1-9.316,4.258-5.342,9.1-1.318ZM14.014,2.1H11.7l6.816-15.9H20.84ZM31.533-.1q-.645.146-1.3.234a9.333,9.333,0,0,1-1.24.088A6.1,6.1,0,0,1,27.31.02a2.93,2.93,0,0,1-1.172-.625,2.485,2.485,0,0,1-.684-1.069,4.848,4.848,0,0,1-.22-1.548V-8.066H22.568V-9.922h2.666v-2.539l2.441-.635v3.174h3.857v1.855H27.676V-3.4a1.865,1.865,0,0,0,.391,1.284,1.689,1.689,0,0,0,1.309.435,6.6,6.6,0,0,0,1.143-.1q.557-.1,1.016-.225ZM42.988-5.723q0,.244-.015.635t-.044.732H36.406a3.074,3.074,0,0,0,.2,1.152,2.262,2.262,0,0,0,.566.835,2.456,2.456,0,0,0,.879.513,3.491,3.491,0,0,0,1.138.176,11.512,11.512,0,0,0,1.548-.112,12.272,12.272,0,0,0,1.714-.366V-.264q-.381.107-.83.2T40.7.088q-.469.068-.947.1t-.928.034A5.99,5.99,0,0,1,36.8-.1a4.026,4.026,0,0,1-1.523-.952,4.168,4.168,0,0,1-.957-1.558,6.365,6.365,0,0,1-.332-2.148,6.9,6.9,0,0,1,.332-2.2,5.048,5.048,0,0,1,.938-1.7,4.115,4.115,0,0,1,1.47-1.094,4.681,4.681,0,0,1,1.929-.386,4.955,4.955,0,0,1,1.865.327,3.741,3.741,0,0,1,1.357.913,3.906,3.906,0,0,1,.83,1.4A5.356,5.356,0,0,1,42.988-5.723Zm-2.422-.342a2.872,2.872,0,0,0-.146-1.021A2.02,2.02,0,0,0,40-7.8a1.683,1.683,0,0,0-.625-.42,2.122,2.122,0,0,0-.767-.137,1.954,1.954,0,0,0-1.475.6,2.758,2.758,0,0,0-.684,1.694Zm12.8,5.684a7.452,7.452,0,0,1-1.455.42,8.777,8.777,0,0,1-1.572.137,6.5,6.5,0,0,1-2.119-.322A4.219,4.219,0,0,1,46.631-1.1a4.166,4.166,0,0,1-1-1.572,6.233,6.233,0,0,1-.347-2.168A5.911,5.911,0,0,1,45.659-7a4.72,4.72,0,0,1,1.06-1.65,4.672,4.672,0,0,1,1.646-1.055,5.913,5.913,0,0,1,2.144-.371,10.828,10.828,0,0,1,1.626.1,9.141,9.141,0,0,1,1.187.259V-7.4a5.976,5.976,0,0,0-1.313-.469,5.888,5.888,0,0,0-1.343-.166,3.013,3.013,0,0,0-1.191.225,2.5,2.5,0,0,0-.889.625,2.706,2.706,0,0,0-.552.972,3.948,3.948,0,0,0-.19,1.255,3.74,3.74,0,0,0,.205,1.279,2.719,2.719,0,0,0,.581.962,2.51,2.51,0,0,0,.9.605A3.142,3.142,0,0,0,50.7-1.9a5.25,5.25,0,0,0,.659-.044,6.47,6.47,0,0,0,.693-.127q.347-.083.684-.19a6.715,6.715,0,0,0,.63-.234ZM62.256,0V-6.465q0-1.631-1.211-1.631a1.73,1.73,0,0,0-1.157.488,8.437,8.437,0,0,0-1.167,1.328V0H56.338V-13.8h2.383v3.4L58.6-8.6a6.966,6.966,0,0,1,.615-.649,3.324,3.324,0,0,1,.674-.483,3.263,3.263,0,0,1,.781-.3,3.912,3.912,0,0,1,.928-.1,3.278,3.278,0,0,1,1.328.249,2.562,2.562,0,0,1,.947.7,3.018,3.018,0,0,1,.571,1.094,5.007,5.007,0,0,1,.19,1.431V0ZM76.24-11.777a6.968,6.968,0,0,0-1.021-.229,7.764,7.764,0,0,0-1.206-.093,2.62,2.62,0,0,0-.781.112,1.609,1.609,0,0,0-.625.356,1.69,1.69,0,0,0-.415.62,2.447,2.447,0,0,0-.151.913v1.6h3.9v1.855h-3.9V0h-2.4V-6.641H66.758V-8.5h2.881V-10a4.8,4.8,0,0,1,.308-1.812,3.187,3.187,0,0,1,.869-1.24,3.511,3.511,0,0,1,1.353-.708,6.466,6.466,0,0,1,1.768-.225,8.667,8.667,0,0,1,1.226.083q.581.083,1.079.2ZM86.973-5.723q0,.244-.015.635t-.044.732H80.391a3.074,3.074,0,0,0,.2,1.152,2.262,2.262,0,0,0,.566.835,2.456,2.456,0,0,0,.879.513,3.491,3.491,0,0,0,1.138.176,11.512,11.512,0,0,0,1.548-.112,12.272,12.272,0,0,0,1.714-.366V-.264q-.381.107-.83.2t-.918.156q-.469.068-.947.1t-.928.034A5.99,5.99,0,0,1,80.781-.1a4.026,4.026,0,0,1-1.523-.952A4.168,4.168,0,0,1,78.3-2.607a6.365,6.365,0,0,1-.332-2.148,6.9,6.9,0,0,1,.332-2.2,5.048,5.048,0,0,1,.938-1.7,4.115,4.115,0,0,1,1.47-1.094,4.681,4.681,0,0,1,1.929-.386A4.955,4.955,0,0,1,84.5-9.81a3.741,3.741,0,0,1,1.357.913,3.906,3.906,0,0,1,.83,1.4A5.356,5.356,0,0,1,86.973-5.723Zm-2.422-.342A2.873,2.873,0,0,0,84.4-7.085a2.02,2.02,0,0,0-.425-.718,1.683,1.683,0,0,0-.625-.42,2.122,2.122,0,0,0-.767-.137,1.954,1.954,0,0,0-1.475.6,2.758,2.758,0,0,0-.684,1.694Zm13.418.342q0,.244-.015.635t-.044.732H91.387a3.074,3.074,0,0,0,.2,1.152,2.262,2.262,0,0,0,.566.835,2.456,2.456,0,0,0,.879.513,3.491,3.491,0,0,0,1.138.176,11.512,11.512,0,0,0,1.548-.112,12.272,12.272,0,0,0,1.714-.366V-.264q-.381.107-.83.2t-.918.156q-.469.068-.947.1t-.928.034A5.99,5.99,0,0,1,91.777-.1a4.026,4.026,0,0,1-1.523-.952A4.168,4.168,0,0,1,89.3-2.607a6.365,6.365,0,0,1-.332-2.148,6.9,6.9,0,0,1,.332-2.2,5.048,5.048,0,0,1,.938-1.7A4.115,4.115,0,0,1,91.7-9.751a4.681,4.681,0,0,1,1.929-.386A4.955,4.955,0,0,1,95.5-9.81a3.741,3.741,0,0,1,1.357.913,3.906,3.906,0,0,1,.83,1.4A5.356,5.356,0,0,1,97.969-5.723Zm-2.422-.342A2.873,2.873,0,0,0,95.4-7.085a2.02,2.02,0,0,0-.425-.718,1.683,1.683,0,0,0-.625-.42,2.122,2.122,0,0,0-.767-.137,1.954,1.954,0,0,0-1.475.6,2.758,2.758,0,0,0-.684,1.694ZM106.563,0,106.5-1.465a7.37,7.37,0,0,1-.645.693,3.834,3.834,0,0,1-.713.532,3.541,3.541,0,0,1-.815.342,3.552,3.552,0,0,1-.962.122,3.368,3.368,0,0,1-1.562-.352,3.188,3.188,0,0,1-1.147-1,4.781,4.781,0,0,1-.708-1.577,8.137,8.137,0,0,1-.244-2.07,6.578,6.578,0,0,1,.386-2.368,4.527,4.527,0,0,1,1.069-1.66,4.278,4.278,0,0,1,1.621-.977,6.328,6.328,0,0,1,2.041-.317,5.8,5.8,0,0,1,.747.049,5.227,5.227,0,0,1,.669.127V-13.8h2.383V0Zm-4.355-4.883a7.507,7.507,0,0,0,.112,1.4,2.983,2.983,0,0,0,.332.952,1.4,1.4,0,0,0,.542.542,1.539,1.539,0,0,0,.732.171,1.712,1.712,0,0,0,1.152-.488,8.428,8.428,0,0,0,1.162-1.338V-7.979a3.684,3.684,0,0,0-.7-.176,5.129,5.129,0,0,0-.835-.068,2.243,2.243,0,0,0-1.035.234,2.289,2.289,0,0,0-.786.664,3.118,3.118,0,0,0-.5,1.05A5.1,5.1,0,0,0,102.207-4.883Zm11.172-5.977,6.582,5.537L113.379.225l-1.514-1.543L116.7-5.3l-4.834-4.014Z" transform="translate(-0.996 13.984)" fill="#14cdc8"/>
</svg>
