<svg version="1.1" xmlns="http://www.w3.org/2000/svg" width="7552" height="1024" viewBox="0 0 7552 1024">
    <g id="svg__thinkmobiles-logo">
    </g>
    <path fill="#1386ff"
          d="M647.5 158.75h-258.75v801.25h-105v-801.25h-258.125v-95h621.875v95zM1305.625 960h-102.5v-368.75c0-133.334-49.583-200-148.75-200-50 0-92.083 19.271-126.25 57.813s-51.25 88.021-51.25 148.437v362.5h-102.5v-947.5h102.5v413.75h2.5c49.167-80.834 119.166-121.25 210-121.25 144.167 0 216.25 86.874 216.25 260.625v394.375zM1551.25 157.5c-18.333 0-33.958-6.25-46.875-18.75s-19.375-28.333-19.375-47.5c0-19.167 6.458-35.104 19.375-47.812s28.542-19.062 46.875-19.062c18.75 0 34.687 6.354 47.813 19.062s19.687 28.646 19.687 47.812c0 18.333-6.562 33.958-19.687 46.875s-29.062 19.375-47.813 19.375zM1601.25 960h-102.5v-640h102.5v640zM2340 960h-102.5v-365c0-135.834-49.583-203.75-148.75-203.75-51.25 0-93.646 19.271-127.188 57.813s-50.313 87.187-50.313 145.937v365h-102.5v-640h102.5v106.25h2.5c48.334-80.834 118.333-121.25 210-121.25 70 0 123.541 22.604 160.625 67.812s55.625 110.52 55.625 195.938v391.25zM3064.375 960h-143.75l-282.5-307.5h-2.5v307.5h-102.5v-947.5h102.5v600.625h2.5l268.75-293.125h134.375l-296.875 308.75 320 331.25zM4096.875 960h-104.375v-601.25c0-47.5 2.917-105.625 8.75-174.375h-2.5c-10 40.417-18.958 69.375-26.875 86.875l-306.25 688.75h-51.25l-305.625-683.75c-8.75-20-17.708-50.625-26.875-91.875h-2.5c3.333 35.834 5 94.375 5 175.625v600h-101.25v-896.25h138.75l275 625c21.25 47.917 35 83.75 41.25 107.5h3.75c17.917-49.167 32.292-85.833 43.125-110l280.625-622.5h131.25v896.25zM4586.25 975c-94.584 0-170.104-29.896-226.562-89.688s-84.687-139.062-84.687-237.812c0-107.501 29.375-191.458 88.125-251.875s138.124-90.625 238.125-90.625c95.417 0 169.896 29.375 223.438 88.125s80.313 140.208 80.313 244.375c0 102.084-28.854 183.854-86.562 245.312s-135.104 92.188-232.188 92.188zM4593.75 391.25c-65.834 0-117.916 22.396-156.25 67.188s-57.5 106.562-57.5 185.313c0 75.834 19.375 135.625 58.125 179.375s90.625 65.625 155.625 65.625c66.25 0 117.187-21.458 152.812-64.375s53.438-103.958 53.438-183.125c0-80-17.812-141.666-53.438-185s-86.562-65-152.812-65zM5173.75 867.5h-2.5v92.5h-102.5v-947.5h102.5v420h2.5c50.417-85 124.166-127.5 221.25-127.5 82.084 0 146.354 28.646 192.812 85.937s69.688 134.062 69.688 230.312c0 107.084-26.041 192.812-78.125 257.188s-123.333 96.563-213.75 96.563c-84.584 0-148.542-35.833-191.875-107.5zM5171.25 609.375v89.375c0 52.917 17.187 97.812 51.562 134.687s78.021 55.313 130.938 55.313c62.084 0 110.729-23.75 145.937-71.25s52.812-113.541 52.812-198.125c0-71.25-16.458-127.083-49.375-167.5s-77.5-60.625-133.75-60.625c-59.584 0-107.5 20.729-143.75 62.188s-54.375 93.437-54.375 155.938zM5873.75 157.5c-18.333 0-33.958-6.25-46.875-18.75s-19.375-28.333-19.375-47.5c0-19.167 6.458-35.104 19.375-47.812s28.542-19.062 46.875-19.062c18.75 0 34.687 6.354 47.812 19.062s19.687 28.646 19.687 47.812c0 18.333-6.562 33.958-19.687 46.875s-29.062 19.375-47.812 19.375zM5923.75 960h-102.5v-640h102.5v640zM6233.75 960h-102.5v-947.5h102.5v947.5zM6955.625 665.625h-451.875c1.667 71.25 20.833 126.25 57.5 165s87.083 58.125 151.25 58.125c72.084 0 138.333-23.75 198.75-71.25v96.25c-56.25 40.834-130.625 61.25-223.125 61.25-90.417 0-161.458-29.062-213.125-87.188s-77.5-139.895-77.5-245.312c0-99.584 28.229-180.729 84.687-243.437s126.562-94.063 210.312-94.063c83.75 0 148.541 27.083 194.375 81.25s68.75 129.375 68.75 225.625v53.75zM6850.625 578.75c-0.417-59.167-14.687-105.208-42.813-138.125s-67.187-49.375-117.187-49.375c-48.334 0-89.375 17.291-123.125 51.875s-54.583 79.791-62.5 135.625h345.625zM7071.875 936.875v-110c55.834 41.25 117.291 61.875 184.375 61.875 90 0 135-30 135-90 0-17.083-3.854-31.562-11.562-43.438s-18.125-22.396-31.25-31.562c-13.125-9.167-28.542-17.396-46.25-24.688s-36.771-14.896-57.188-22.813c-28.334-11.25-53.229-22.604-74.687-34.062s-39.375-24.375-53.75-38.75c-14.375-14.375-25.208-30.729-32.5-49.062s-10.938-39.792-10.938-64.375c0-30 6.875-56.562 20.625-79.688s32.083-42.5 55-58.125c22.917-15.625 49.062-27.396 78.438-35.312s59.687-11.875 90.937-11.875c55.417 0 105 9.583 148.75 28.75v103.75c-47.084-30.833-101.25-46.25-162.5-46.25-19.167 0-36.458 2.187-51.875 6.563s-28.646 10.521-39.687 18.437c-11.042 7.917-19.583 17.396-25.625 28.438s-9.063 23.229-9.063 36.562c0 16.667 3.021 30.625 9.063 41.875s14.896 21.25 26.562 30c11.667 8.75 25.833 16.667 42.5 23.75s35.625 14.792 56.875 23.125c28.334 10.833 53.75 21.979 76.25 33.437s41.667 24.375 57.5 38.75c15.833 14.375 28.021 30.937 36.562 49.688s12.812 41.042 12.812 66.875c0 31.667-6.979 59.167-20.937 82.5s-32.604 42.708-55.938 58.125c-23.333 15.417-50.208 26.875-80.625 34.375s-62.292 11.25-95.625 11.25c-65.834 0-122.916-12.708-171.25-38.125z"></path>
</svg>
